<?xml version="1.0" encoding="utf-8"?>
<!-- Generator: Adobe Illustrator 16.0.0, SVG Export Plug-In . SVG Version: 6.00 Build 0)  -->
<!DOCTYPE svg PUBLIC "-//W3C//DTD SVG 1.1//EN" "http://www.w3.org/Graphics/SVG/1.1/DTD/svg11.dtd">
<svg version="1.1" id="Layer_1" xmlns="http://www.w3.org/2000/svg" xmlns:xlink="http://www.w3.org/1999/xlink" x="0px" y="0px"
	 width="636px" height="63px" viewBox="0 0 636 63" enable-background="new 0 0 636 63" xml:space="preserve">
<g>
	<path d="M122.915,30.924h19.531V16.222c0-3.78-0.56-4.271-5.391-4.831v-2.66h22.612v2.66c-4.76,0.56-5.32,1.05-5.32,4.831v34.164
		c0,3.78,0.561,4.271,5.32,4.831v2.66h-22.612v-2.66c4.831-0.56,5.391-1.05,5.391-4.831V34.774h-19.531v15.612
		c0,3.78,0.56,4.271,5.391,4.831v2.66h-22.612v-2.66c4.762-0.56,5.321-1.05,5.321-4.831V16.222c0-3.78-0.56-4.271-5.321-4.831v-2.66
		h22.612v2.66c-4.831,0.56-5.391,1.05-5.391,4.831V30.924z"/>
	<path d="M195.297,34.774v1.61h-22.612c-0.21,9.171,4.62,14.631,11.201,14.631c4.69,0,7.911-1.82,10.501-5.391l1.19,0.7
		c-1.82,7.351-7.071,12.251-15.542,12.251c-10.222,0-17.502-7.211-17.502-18.482c0-12.251,8.12-20.302,17.991-20.302
		C190.256,19.792,195.297,26.093,195.297,34.774z M172.824,33.514h12.602c0-6.65-1.54-10.991-5.67-10.991
		C175.485,22.523,173.245,27.073,172.824,33.514z"/>
	<path d="M229.805,50.176c0,2.03,0.35,3.5,2.101,3.5c1.051,0,1.961-0.28,2.591-0.56l0.42,1.68c-2.101,2.38-4.9,3.781-8.541,3.781
		c-3.92,0-6.581-2.24-7.491-6.021c-2.17,2.94-5.67,5.881-10.711,5.881c-5.812,0-9.731-3.43-9.731-9.241
		c0-6.09,4.271-8.541,9.381-10.431l10.852-3.851v-6.511c0-3.64-1.12-6.161-4.34-6.161c-3.01,0-4.271,2.38-4.271,5.741
		c0,1.47,0.21,2.94,0.63,4.55l-6.721,0.91c-1.96-0.63-3.291-2.24-3.291-4.621c0-6.09,6.301-9.031,14.422-9.031
		c9.312,0,14.701,3.15,14.701,11.831L229.805,50.176L229.805,50.176z M218.674,50.666V37.645l-4.971,1.96
		c-2.73,1.12-4.48,2.521-4.48,6.511c0,3.641,1.54,6.23,5.181,6.23C216.014,52.346,217.134,51.716,218.674,50.666z"/>
	<path d="M257.594,8.101v-1.75l13.511-3.291h1.82v47.115c0,2.38,0.14,3.29,2.66,3.43l1.68,0.07v2.451l-13.792,2.45h-2.03l0.21-6.581
		c-2.869,4.13-6.51,6.581-11.341,6.581c-8.331,0-14.072-6.651-14.072-17.642c0-13.441,7.981-20.932,18.133-20.932
		c3.081,0,5.601,0.84,7.28,2.24v-12.04L257.594,8.101z M247.443,37.224c0,8.611,3.291,14.772,9.171,14.772
		c1.96,0,3.642-0.561,5.041-1.61V31.414c0-5.11-1.819-7.981-5.739-7.981C250.453,23.433,247.443,28.963,247.443,37.224z"/>
	<path d="M306.662,20.493h8.682v3.5h-8.682v23.172c0,3.85,1.471,5.46,4.48,5.46c1.82,0,3.43-0.63,5.11-1.89l0.979,1.4
		c-2.45,3.92-6.161,6.441-11.48,6.441c-6.021,0-10.361-3.081-10.361-11.131V23.993h-4.201v-1.96
		c5.182-2.17,9.801-6.161,13.091-10.851h2.38v9.311H306.662z"/>
	<path d="M318.422,39.955c0-11.831,7.91-20.162,18.832-20.162c11.131,0,18.762,7.351,18.762,18.622
		c0,11.831-7.98,20.162-18.902,20.162C325.982,58.577,318.422,51.226,318.422,39.955z M344.045,41.145
		c0-10.921-2.031-18.622-7.142-18.622c-4.69,0-6.581,5.67-6.581,14.701c0,10.921,2.03,18.622,7.142,18.622
		C342.154,55.846,344.045,50.176,344.045,41.145z"/>
	<path d="M375.682,10.202l-3.99-2.101v-1.75l13.441-3.291h1.819v23.663c2.8-3.43,6.859-6.931,12.951-6.931
		c6.65,0,10.291,3.851,10.291,11.481v21.212c0,2.31,1.119,2.66,4.129,2.871v2.52h-19.391v-2.52c3.01-0.21,3.99-0.561,3.99-2.871
		V32.044c0-3.641-1.33-5.531-5.041-5.531c-2.59,0-4.9,0.98-6.931,2.24v23.732c0,2.31,0.979,2.66,3.99,2.871v2.52h-19.393v-2.52
		c3.01-0.21,4.131-0.561,4.131-2.871V10.202H375.682z"/>
	<path d="M449.323,34.774v1.61h-22.612c-0.209,9.171,4.62,14.631,11.2,14.631c4.691,0,7.91-1.82,10.502-5.391l1.189,0.7
		c-1.82,7.351-7.07,12.251-15.541,12.251c-10.221,0-17.502-7.211-17.502-18.482c0-12.251,8.121-20.302,17.992-20.302
		C444.282,19.792,449.323,26.093,449.323,34.774z M426.852,33.514h12.602c0-6.65-1.541-10.991-5.672-10.991
		C429.512,22.523,427.271,27.073,426.852,33.514z"/>
	<path d="M483.831,50.176c0,2.03,0.351,3.5,2.101,3.5c1.051,0,1.961-0.28,2.592-0.56l0.42,1.68c-2.102,2.38-4.899,3.781-8.541,3.781
		c-3.92,0-6.582-2.24-7.492-6.021c-2.17,2.94-5.67,5.881-10.711,5.881c-5.811,0-9.729-3.43-9.729-9.241
		c0-6.09,4.271-8.541,9.381-10.431l10.852-3.851v-6.511c0-3.64-1.121-6.161-4.34-6.161c-3.012,0-4.271,2.38-4.271,5.741
		c0,1.47,0.211,2.94,0.631,4.55L458,33.444c-1.962-0.63-3.291-2.24-3.291-4.621c0-6.09,6.301-9.031,14.422-9.031
		c9.311,0,14.7,3.15,14.7,11.831V50.176z M472.7,50.666V37.645l-4.971,1.96c-2.73,1.12-4.48,2.521-4.48,6.511
		c0,3.641,1.541,6.23,5.181,6.23C470.04,52.346,471.159,51.716,472.7,50.666z"/>
	<path d="M511.62,8.101v-1.75l13.511-3.291h1.819v47.115c0,2.38,0.142,3.29,2.66,3.43l1.683,0.07v2.451l-13.791,2.45h-2.031
		l0.211-6.581c-2.871,4.13-6.512,6.581-11.342,6.581c-8.332,0-14.072-6.651-14.072-17.642c0-13.441,7.979-20.932,18.133-20.932
		c3.08,0,5.6,0.84,7.281,2.24v-12.04L511.62,8.101z M501.469,37.224c0,8.611,3.291,14.772,9.172,14.772
		c1.959,0,3.641-0.561,5.041-1.61V31.414c0-5.11-1.82-7.981-5.742-7.981C504.48,23.433,501.469,28.963,501.469,37.224z"/>
</g>
</svg>
