<?xml version="1.0" encoding="utf-8"?>
<!-- Generator: Adobe Illustrator 16.0.0, SVG Export Plug-In . SVG Version: 6.00 Build 0)  -->
<!DOCTYPE svg PUBLIC "-//W3C//DTD SVG 1.1//EN" "http://www.w3.org/Graphics/SVG/1.1/DTD/svg11.dtd">
<svg version="1.1" id="Layer_1" xmlns="http://www.w3.org/2000/svg" xmlns:xlink="http://www.w3.org/1999/xlink" x="0px" y="0px"
	 width="216px" height="210px" viewBox="0 0 216 210" enable-background="new 0 0 216 210" xml:space="preserve">
<g>
	<path d="M39.928,33.591H59.46V18.889c0-3.78-0.56-4.271-5.391-4.831v-2.66h22.612v2.66c-4.76,0.56-5.32,1.05-5.32,4.831v34.164
		c0,3.78,0.56,4.271,5.32,4.831v2.66H54.069v-2.66c4.831-0.56,5.391-1.05,5.391-4.831V37.441H39.928v15.612
		c0,3.78,0.56,4.271,5.391,4.831v2.66H22.706v-2.66c4.761-0.56,5.321-1.05,5.321-4.831V18.889c0-3.78-0.56-4.271-5.321-4.831v-2.66
		h22.612v2.66c-4.831,0.56-5.391,1.05-5.391,4.831L39.928,33.591L39.928,33.591z"/>
	<path d="M112.311,37.441v1.61H89.698c-0.21,9.171,4.62,14.631,11.201,14.631c4.69,0,7.912-1.82,10.501-5.391l1.188,0.7
		c-1.819,7.351-7.071,12.251-15.542,12.251c-10.221,0-17.502-7.211-17.502-18.482c0-12.251,8.121-20.302,17.992-20.302
		C107.27,22.459,112.311,28.76,112.311,37.441z M89.837,36.181h12.602c0-6.65-1.54-10.991-5.671-10.991
		C92.498,25.19,90.258,29.74,89.837,36.181z"/>
	<path d="M146.818,52.843c0,2.03,0.35,3.5,2.1,3.5c1.051,0,1.961-0.28,2.592-0.56l0.42,1.68c-2.102,2.38-4.9,3.781-8.541,3.781
		c-3.92,0-6.582-2.24-7.492-6.021c-2.17,2.94-5.67,5.881-10.709,5.881c-5.813,0-9.731-3.43-9.731-9.241
		c0-6.09,4.271-8.541,9.381-10.431l10.853-3.851V31.07c0-3.64-1.121-6.161-4.34-6.161c-3.013,0-4.271,2.38-4.271,5.741
		c0,1.47,0.211,2.94,0.631,4.55l-6.721,0.91c-1.961-0.63-3.291-2.24-3.291-4.621c0-6.09,6.301-9.031,14.422-9.031
		c9.311,0,14.701,3.15,14.701,11.831v18.554H146.818z M135.688,53.333V40.312l-4.971,1.96c-2.73,1.12-4.48,2.521-4.48,6.511
		c0,3.641,1.541,6.23,5.181,6.23C133.027,55.013,134.146,54.383,135.688,53.333z"/>
	<path d="M174.607,10.768v-1.75l13.512-3.291h1.82v47.115c0,2.38,0.141,3.29,2.66,3.43l1.68,0.07v2.451l-13.791,2.45h-2.029
		l0.209-6.581c-2.871,4.13-6.51,6.581-11.342,6.581c-8.33,0-14.07-6.651-14.07-17.642c0-13.441,7.98-20.932,18.131-20.932
		c3.08,0,5.602,0.84,7.281,2.24v-12.04L174.607,10.768z M164.457,39.891c0,8.611,3.289,14.772,9.17,14.772
		c1.961,0,3.641-0.561,5.041-1.61V34.081c0-5.11-1.82-7.981-5.74-7.981C167.467,26.1,164.457,31.63,164.457,39.891z"/>
	<path d="M90.432,93.16h8.681v3.5h-8.681v23.172c0,3.85,1.47,5.46,4.48,5.46c1.82,0,3.43-0.63,5.11-1.89l0.98,1.4
		c-2.451,3.92-6.161,6.441-11.481,6.441c-6.021,0-10.361-3.081-10.361-11.131V96.66h-4.2V94.7c5.181-2.17,9.801-6.161,13.091-10.851
		h2.38L90.432,93.16L90.432,93.16z"/>
	<path d="M102.191,112.622c0-11.831,7.911-20.162,18.833-20.162c11.131,0,18.763,7.351,18.763,18.622
		c0,11.831-7.979,20.162-18.902,20.162C109.752,131.244,102.191,123.893,102.191,112.622z M127.814,113.812
		c0-10.921-2.031-18.622-7.143-18.622c-4.689,0-6.581,5.67-6.581,14.701c0,10.921,2.031,18.622,7.142,18.622
		C125.924,128.513,127.814,122.843,127.814,113.812z"/>
	<path d="M32.437,152.868l-3.99-2.101v-1.75l13.441-3.291h1.82v23.663c2.8-3.43,6.861-6.931,12.952-6.931
		c6.65,0,10.291,3.851,10.291,11.481v21.212c0,2.311,1.12,2.66,4.13,2.87v2.521H51.689v-2.521c3.01-0.21,3.99-0.56,3.99-2.87V174.71
		c0-3.641-1.33-5.531-5.041-5.531c-2.59,0-4.9,0.98-6.931,2.24v23.732c0,2.311,0.98,2.66,3.991,2.87v2.521H28.307v-2.521
		c3.01-0.21,4.13-0.56,4.13-2.87V152.868z"/>
	<path d="M106.08,177.44v1.61H83.467c-0.21,9.171,4.62,14.632,11.201,14.632c4.69,0,7.911-1.82,10.501-5.391l1.19,0.7
		c-1.82,7.351-7.071,12.251-15.542,12.251c-10.221,0-17.502-7.211-17.502-18.482c0-12.251,8.121-20.302,17.992-20.302
		C101.039,162.459,106.08,168.76,106.08,177.44z M83.607,176.181h12.602c0-6.651-1.54-10.991-5.671-10.991
		C86.268,165.189,84.027,169.74,83.607,176.181z"/>
	<path d="M140.588,192.842c0,2.03,0.35,3.501,2.1,3.501c1.051,0,1.961-0.28,2.592-0.561l0.421,1.681
		c-2.103,2.38-4.9,3.78-8.541,3.78c-3.921,0-6.582-2.24-7.492-6.021c-2.17,2.94-5.67,5.881-10.71,5.881
		c-5.813,0-9.73-3.431-9.73-9.241c0-6.091,4.271-8.541,9.381-10.431l10.852-3.851v-6.511c0-3.64-1.12-6.161-4.34-6.161
		c-3.012,0-4.271,2.38-4.271,5.741c0,1.47,0.211,2.94,0.631,4.55l-6.721,0.91c-1.961-0.63-3.291-2.24-3.291-4.621
		c0-6.09,6.301-9.031,14.422-9.031c9.312,0,14.701,3.15,14.701,11.831v18.554H140.588z M129.457,193.332v-13.021l-4.971,1.96
		c-2.73,1.12-4.48,2.521-4.48,6.51c0,3.641,1.541,6.231,5.182,6.231C126.797,195.013,127.917,194.383,129.457,193.332z"/>
	<path d="M168.377,150.768v-1.75l13.512-3.291h1.82v47.115c0,2.381,0.141,3.291,2.66,3.431l1.68,0.07v2.45l-13.791,2.45h-2.029
		l0.209-6.581c-2.871,4.131-6.51,6.581-11.342,6.581c-8.33,0-14.07-6.65-14.07-17.642c0-13.441,7.98-20.932,18.132-20.932
		c3.079,0,5.602,0.84,7.28,2.24v-12.041L168.377,150.768z M158.227,179.891c0,8.611,3.289,14.771,9.17,14.771
		c1.961,0,3.642-0.56,5.041-1.61V174.08c0-5.11-1.819-7.98-5.74-7.98C161.236,166.1,158.227,171.63,158.227,179.891z"/>
</g>
</svg>
